<svg width="70" height="43" fill="none" xmlns="http://www.w3.org/2000/svg"><path d="M35 0c-9.333 0-15.167 4.667-17.5 14 3.5-4.667 7.583-6.417 12.25-5.25 2.663.666 4.566 2.597 6.672 4.736C39.854 16.968 43.825 21 52.5 21c9.333 0 15.167-4.667 17.5-14-3.5 4.667-7.583 6.417-12.25 5.25-2.663-.666-4.566-2.597-6.672-4.736C47.646 4.031 43.675 0 35 0zM17.5 21C8.167 21 2.333 25.667 0 35c3.5-4.667 7.583-6.417 12.25-5.25 2.663.666 4.566 2.597 6.672 4.736C22.354 37.968 26.325 42 35 42c9.333 0 15.167-4.667 17.5-14-3.5 4.667-7.583 6.417-12.25 5.25-2.663-.666-4.566-2.597-6.672-4.735C30.146 25.03 26.175 21 17.5 21z" fill="#38BDF8"/></svg>